<svg width="29" height="29" viewBox="0 0 29 29" fill="none" xmlns="http://www.w3.org/2000/svg">
<circle cx="14.5" cy="14.5" r="14.5" fill="#B0B0B0" fill-opacity="0.2"/>
<path d="M14.5007 6.58325C18.873 6.58325 22.4173 10.1275 22.4173 14.4999C22.4173 18.8723 18.873 22.4166 14.5007 22.4166C13.1016 22.4188 11.7272 22.0486 10.5186 21.3439L6.58716 22.4166L7.6575 18.4836C6.95219 17.2746 6.58166 15.8996 6.584 14.4999C6.584 10.1275 10.1283 6.58325 14.5007 6.58325ZM11.8027 10.7791L11.6443 10.7854C11.5418 10.7917 11.4416 10.8186 11.3498 10.8646C11.2639 10.9132 11.1856 10.974 11.1171 11.0451C11.0221 11.1345 10.9682 11.2121 10.9105 11.2873C10.6176 11.668 10.46 12.1355 10.4624 12.6158C10.464 13.0037 10.5653 13.3813 10.7236 13.7344C11.0474 14.4485 11.5802 15.2045 12.2832 15.9051C12.4526 16.0738 12.6189 16.2432 12.7978 16.4007C13.6713 17.1698 14.7122 17.7244 15.8378 18.0205L16.2875 18.0893C16.4339 18.0973 16.5804 18.0862 16.7276 18.079C16.9582 18.0671 17.1833 18.0047 17.3871 17.8962C17.4908 17.8428 17.5919 17.7846 17.6903 17.722C17.6903 17.722 17.7243 17.6998 17.7892 17.6508C17.8961 17.5716 17.9618 17.5154 18.0505 17.4228C18.1162 17.3547 18.1732 17.2747 18.2167 17.1837C18.2785 17.0546 18.3402 16.8084 18.3656 16.6034C18.3846 16.4466 18.379 16.3611 18.3767 16.3081C18.3735 16.2234 18.303 16.1355 18.2262 16.0983L17.7655 15.8917C17.7655 15.8917 17.0767 15.5916 16.6556 15.4C16.6115 15.3808 16.5643 15.3698 16.5162 15.3676C16.4621 15.362 16.4074 15.3681 16.3557 15.3855C16.3041 15.4028 16.2568 15.431 16.217 15.4681C16.213 15.4665 16.16 15.5117 15.5876 16.2052C15.5548 16.2493 15.5095 16.2827 15.4576 16.301C15.4057 16.3193 15.3496 16.3218 15.2963 16.3081C15.2447 16.2943 15.1942 16.2768 15.1451 16.2558C15.0469 16.2147 15.0129 16.1988 14.9456 16.1703C14.4912 15.9721 14.0705 15.7042 13.6987 15.3763C13.599 15.2892 13.5063 15.1942 13.4113 15.1024C13.0999 14.8041 12.8284 14.4667 12.6038 14.0985L12.5571 14.0233C12.5236 13.9728 12.4964 13.9183 12.4764 13.861C12.4463 13.7447 12.5247 13.6513 12.5247 13.6513C12.5247 13.6513 12.717 13.4407 12.8065 13.3267C12.8936 13.2158 12.9672 13.1082 13.0147 13.0314C13.1081 12.881 13.1374 12.7266 13.0883 12.607C12.8667 12.0655 12.6371 11.5264 12.4012 10.9913C12.3545 10.8852 12.2159 10.8092 12.09 10.7941C12.0473 10.7894 12.0045 10.7846 11.9618 10.7815C11.8555 10.7762 11.7489 10.7772 11.6427 10.7846L11.8027 10.7791Z" fill="#59524F"/>
</svg>
