<svg width="212" height="22" viewBox="0 0 212 22" fill="none" xmlns="http://www.w3.org/2000/svg">
<path d="M7.83503e-05 21.1799V0.17993H2.22008V21.1799H7.83503e-05ZM13.1328 21.1799V2.09993H5.75281V0.17993H22.7328V2.09993H15.3528V21.1799H13.1328ZM28.2594 9.56993H39.3594V11.4599H28.2594V9.56993ZM28.4994 19.2599H41.1294V21.1799H26.2794V0.17993H40.6794V2.09993H28.4994V19.2599ZM46.3477 21.1799V0.17993H54.2077C55.9877 0.17993 57.5177 0.469931 58.7977 1.04993C60.0777 1.60993 61.0577 2.42993 61.7377 3.50993C62.4377 4.56993 62.7877 5.85993 62.7877 7.37993C62.7877 8.85993 62.4377 10.1399 61.7377 11.2199C61.0577 12.2799 60.0777 13.0999 58.7977 13.6799C57.5177 14.2399 55.9877 14.5199 54.2077 14.5199H47.5777L48.5677 13.4999V21.1799H46.3477ZM60.6877 21.1799L55.2877 13.5599H57.6877L63.1177 21.1799H60.6877ZM48.5677 13.6799L47.5777 12.6299H54.1477C56.2477 12.6299 57.8377 12.1699 58.9177 11.2499C60.0177 10.3299 60.5677 9.03993 60.5677 7.37993C60.5677 5.69993 60.0177 4.39993 58.9177 3.47993C57.8377 2.55993 56.2477 2.09993 54.1477 2.09993H47.5777L48.5677 1.04993V13.6799ZM64.6674 21.1799L74.2674 0.17993H76.4574L86.0574 21.1799H83.7174L74.8974 1.46993H75.7974L66.9774 21.1799H64.6674ZM68.4474 15.5699L69.1074 13.7699H81.3174L81.9774 15.5699H68.4474ZM87.4719 13.9799V12.1199H95.3319V13.9799H87.4719ZM109.991 21.3599C108.391 21.3599 106.911 21.0999 105.551 20.5799C104.211 20.0399 103.041 19.2899 102.041 18.3299C101.061 17.3699 100.291 16.2399 99.7313 14.9399C99.1913 13.6399 98.9213 12.2199 98.9213 10.6799C98.9213 9.13993 99.1913 7.71993 99.7313 6.41993C100.291 5.11993 101.071 3.98993 102.071 3.02993C103.071 2.06993 104.241 1.32993 105.581 0.809931C106.941 0.269931 108.421 -6.92606e-05 110.021 -6.92606e-05C111.621 -6.92606e-05 113.081 0.249931 114.401 0.74993C115.741 1.24993 116.881 2.00993 117.821 3.02993L116.441 4.43993C115.561 3.55993 114.591 2.92993 113.531 2.54993C112.471 2.16993 111.331 1.97993 110.111 1.97993C108.811 1.97993 107.611 2.19993 106.511 2.63993C105.431 3.05993 104.481 3.66993 103.661 4.46993C102.861 5.24993 102.231 6.16993 101.771 7.22993C101.331 8.26993 101.111 9.41993 101.111 10.6799C101.111 11.9199 101.331 13.0699 101.771 14.1299C102.231 15.1899 102.861 16.1199 103.661 16.9199C104.481 17.6999 105.431 18.3099 106.511 18.7499C107.611 19.1699 108.801 19.3799 110.081 19.3799C111.281 19.3799 112.411 19.1999 113.471 18.8399C114.551 18.4799 115.541 17.8699 116.441 17.0099L117.701 18.6899C116.701 19.5699 115.531 20.2399 114.191 20.6999C112.851 21.1399 111.451 21.3599 109.991 21.3599ZM115.571 18.4199V10.6799H117.701V18.6899L115.571 18.4199ZM123.984 21.1799V0.17993H131.844C133.624 0.17993 135.154 0.469931 136.434 1.04993C137.714 1.60993 138.694 2.42993 139.374 3.50993C140.074 4.56993 140.424 5.85993 140.424 7.37993C140.424 8.85993 140.074 10.1399 139.374 11.2199C138.694 12.2799 137.714 13.0999 136.434 13.6799C135.154 14.2399 133.624 14.5199 131.844 14.5199H125.214L126.204 13.4999V21.1799H123.984ZM138.324 21.1799L132.924 13.5599H135.324L140.754 21.1799H138.324ZM126.204 13.6799L125.214 12.6299H131.784C133.884 12.6299 135.474 12.1699 136.554 11.2499C137.654 10.3299 138.204 9.03993 138.204 7.37993C138.204 5.69993 137.654 4.39993 136.554 3.47993C135.474 2.55993 133.884 2.09993 131.784 2.09993H125.214L126.204 1.04993V13.6799ZM154.844 21.3599C153.264 21.3599 151.794 21.0999 150.434 20.5799C149.094 20.0399 147.924 19.2899 146.924 18.3299C145.944 17.3499 145.174 16.2199 144.614 14.9399C144.074 13.6399 143.804 12.2199 143.804 10.6799C143.804 9.13993 144.074 7.72993 144.614 6.44993C145.174 5.14993 145.944 4.01993 146.924 3.05993C147.924 2.07993 149.094 1.32993 150.434 0.809931C151.774 0.269931 153.244 -6.92606e-05 154.844 -6.92606e-05C156.424 -6.92606e-05 157.884 0.269931 159.224 0.809931C160.564 1.32993 161.724 2.06993 162.704 3.02993C163.704 3.98993 164.474 5.11993 165.014 6.41993C165.574 7.71993 165.854 9.13993 165.854 10.6799C165.854 12.2199 165.574 13.6399 165.014 14.9399C164.474 16.2399 163.704 17.3699 162.704 18.3299C161.724 19.2899 160.564 20.0399 159.224 20.5799C157.884 21.0999 156.424 21.3599 154.844 21.3599ZM154.844 19.3799C156.104 19.3799 157.264 19.1699 158.324 18.7499C159.404 18.3099 160.334 17.6999 161.114 16.9199C161.914 16.1199 162.534 15.1999 162.974 14.1599C163.414 13.0999 163.634 11.9399 163.634 10.6799C163.634 9.41993 163.414 8.26993 162.974 7.22993C162.534 6.16993 161.914 5.24993 161.114 4.46993C160.334 3.66993 159.404 3.05993 158.324 2.63993C157.264 2.19993 156.104 1.97993 154.844 1.97993C153.584 1.97993 152.414 2.19993 151.334 2.63993C150.254 3.05993 149.314 3.66993 148.514 4.46993C147.734 5.24993 147.114 6.16993 146.654 7.22993C146.214 8.26993 145.994 9.41993 145.994 10.6799C145.994 11.9199 146.214 13.0699 146.654 14.1299C147.114 15.1899 147.734 16.1199 148.514 16.9199C149.314 17.6999 150.254 18.3099 151.334 18.7499C152.414 19.1699 153.584 19.3799 154.844 19.3799ZM179.29 21.3599C176.61 21.3599 174.5 20.5899 172.96 19.0499C171.42 17.5099 170.65 15.2299 170.65 12.2099V0.17993H172.87V12.1199C172.87 14.5999 173.43 16.4299 174.55 17.6099C175.67 18.7899 177.25 19.3799 179.29 19.3799C181.35 19.3799 182.94 18.7899 184.06 17.6099C185.18 16.4299 185.74 14.5999 185.74 12.1199V0.17993H187.9V12.2099C187.9 15.2299 187.13 17.5099 185.59 19.0499C184.07 20.5899 181.97 21.3599 179.29 21.3599ZM194.59 21.1799V0.17993H202.45C204.23 0.17993 205.76 0.469931 207.04 1.04993C208.32 1.60993 209.3 2.42993 209.98 3.50993C210.68 4.56993 211.03 5.85993 211.03 7.37993C211.03 8.85993 210.68 10.1399 209.98 11.2199C209.3 12.2799 208.32 13.0999 207.04 13.6799C205.76 14.2599 204.23 14.5499 202.45 14.5499H195.82L196.81 13.4999V21.1799H194.59ZM196.81 13.6799L195.82 12.5999H202.39C204.49 12.5999 206.08 12.1499 207.16 11.2499C208.26 10.3299 208.81 9.03993 208.81 7.37993C208.81 5.69993 208.26 4.39993 207.16 3.47993C206.08 2.55993 204.49 2.09993 202.39 2.09993H195.82L196.81 1.04993V13.6799Z" fill="black"/>
</svg>
